<?xml version="1.0" encoding="UTF-8" standalone="no"?>
<!DOCTYPE svg PUBLIC "-//W3C//DTD SVG 1.1//EN" "http://www.w3.org/Graphics/SVG/1.1/DTD/svg11.dtd">
<svg xmlns="http://www.w3.org/2000/svg" version="1.1" viewBox="0.00 0.00 64.00 64.00">
<path fill="#000000" d="
  M 8.00 8.75
  L 8.00 55.50
  Q 8.00 55.99 8.50 55.99
  L 22.25 56.01
  A 1.69 1.68 86.5 0 1 23.92 57.50
  L 23.97 57.89
  A 1.89 1.88 86.6 0 1 22.10 60.00
  L 6.00 60.00
  A 2.00 2.00 0.0 0 1 4.00 58.00
  L 4.02 5.74
  A 1.74 1.74 0.0 0 1 5.76 4.00
  L 22.25 4.00
  A 1.62 1.62 0.0 0 1 23.87 5.66
  L 23.86 6.15
  Q 23.83 8.00 21.97 8.00
  L 8.75 8.00
  Q 8.00 8.00 8.00 8.75
  Z"
/>
<path fill="#000000" d="
  M 56.04 55.29
  L 56.01 8.75
  A 0.76 0.76 0.0 0 0 55.25 8.00
  L 41.88 8.00
  Q 39.75 8.00 40.03 5.88
  L 40.09 5.36
  A 1.56 1.55 -86.2 0 1 41.63 4.01
  L 58.00 4.00
  A 2.00 2.00 0.0 0 1 60.00 6.00
  L 60.00 58.25
  A 1.75 1.75 0.0 0 1 58.25 60.00
  L 41.65 59.99
  A 1.58 1.57 86.3 0 1 40.09 58.62
  L 40.04 58.25
  Q 39.75 56.01 42.01 56.01
  L 55.34 55.98
  A 0.70 0.69 0.0 0 0 56.04 55.29
  Z"
/>
<path fill="#000000" d="
  M 17.44 17.51
  L 15.95 17.85
  A 1.77 1.76 15.8 0 1 14.29 14.89
  L 18.63 10.52
  A 1.97 1.97 0.0 0 1 22.00 11.91
  L 22.01 25.47
  A 0.56 0.56 0.0 0 0 22.68 26.02
  Q 24.37 25.69 25.58 26.76
  A 1.83 1.83 0.0 0 1 24.42 29.95
  Q 20.61 30.05 16.50 30.11
  Q 14.78 30.13 14.14 28.66
  A 1.75 1.75 0.0 0 1 15.48 26.23
  L 17.45 25.92
  A 0.68 0.67 -4.5 0 0 18.02 25.26
  L 17.99 17.94
  Q 17.99 17.38 17.44 17.51
  Z"
/>
<path fill="#000000" d="
  M 43.9826 29.9600
  A 9.97 7.97 90.1 0 1 36.0300 19.9761
  A 9.97 7.97 90.1 0 1 44.0174 10.0200
  A 9.97 7.97 90.1 0 1 51.9700 20.0039
  A 9.97 7.97 90.1 0 1 43.9826 29.9600
  Z
  M 44.0000 25.9700
  A 5.97 3.98 90.0 0 0 47.9800 20.0000
  A 5.97 3.98 90.0 0 0 44.0000 14.0300
  A 5.97 3.98 90.0 0 0 40.0200 20.0000
  A 5.97 3.98 90.0 0 0 44.0000 25.9700
  Z"
/>
<path fill="#000000" d="
  M 20.0000 53.9700
  A 9.97 7.97 90.0 0 1 12.0300 44.0000
  A 9.97 7.97 90.0 0 1 20.0000 34.0300
  A 9.97 7.97 90.0 0 1 27.9700 44.0000
  A 9.97 7.97 90.0 0 1 20.0000 53.9700
  Z
  M 20.0000 49.9700
  A 5.97 3.98 90.0 0 0 23.9800 44.0000
  A 5.97 3.98 90.0 0 0 20.0000 38.0300
  A 5.97 3.98 90.0 0 0 16.0200 44.0000
  A 5.97 3.98 90.0 0 0 20.0000 49.9700
  Z"
/>
<path fill="#000000" d="
  M 41.57 41.46
  L 39.68 41.86
  A 1.68 1.68 0.0 0 1 38.15 39.03
  L 42.80 34.38
  A 1.88 1.87 67.4 0 1 46.00 35.70
  L 46.06 49.08
  A 0.90 0.90 0.0 0 0 46.73 49.95
  L 48.44 50.41
  Q 49.63 50.73 49.78 51.96
  L 49.82 52.29
  Q 49.97 53.54 48.72 53.73
  C 46.14 54.12 43.44 53.90 40.63 54.05
  Q 39.00 54.14 38.08 52.72
  A 1.15 1.14 -49.4 0 1 38.00 51.61
  Q 38.90 49.65 41.31 50.08
  A 0.61 0.60 -85.2 0 0 42.01 49.48
  L 42.00 41.81
  Q 41.99 41.37 41.57 41.46
  Z"
/>
</svg>
